G04 #@! TF.FileFunction,Legend,Top*
%FSLAX46Y46*%
G04 Gerber Fmt 4.6, Leading zero omitted, Abs format (unit mm)*
G04 Created by KiCad (PCBNEW 4.0.6) date Wed Jul 19 18:28:27 2017*
%MOMM*%
%LPD*%
G01*
G04 APERTURE LIST*
%ADD10C,0.100000*%
%ADD11C,0.150000*%
%ADD12C,0.300000*%
%ADD13C,0.120000*%
%ADD14C,0.200000*%
%ADD15C,0.254000*%
G04 APERTURE END LIST*
D10*
D11*
X120618857Y-91575381D02*
X120618857Y-90575381D01*
X120618857Y-91051571D02*
X121190286Y-91051571D01*
X121190286Y-91575381D02*
X121190286Y-90575381D01*
X122095048Y-91575381D02*
X122095048Y-91051571D01*
X122047429Y-90956333D01*
X121952191Y-90908714D01*
X121761714Y-90908714D01*
X121666476Y-90956333D01*
X122095048Y-91527762D02*
X121999810Y-91575381D01*
X121761714Y-91575381D01*
X121666476Y-91527762D01*
X121618857Y-91432524D01*
X121618857Y-91337286D01*
X121666476Y-91242048D01*
X121761714Y-91194429D01*
X121999810Y-91194429D01*
X122095048Y-91146810D01*
X122571238Y-90908714D02*
X122571238Y-91908714D01*
X122571238Y-90956333D02*
X122666476Y-90908714D01*
X122856953Y-90908714D01*
X122952191Y-90956333D01*
X122999810Y-91003952D01*
X123047429Y-91099190D01*
X123047429Y-91384905D01*
X122999810Y-91480143D01*
X122952191Y-91527762D01*
X122856953Y-91575381D01*
X122666476Y-91575381D01*
X122571238Y-91527762D01*
X123476000Y-90908714D02*
X123476000Y-91908714D01*
X123476000Y-90956333D02*
X123571238Y-90908714D01*
X123761715Y-90908714D01*
X123856953Y-90956333D01*
X123904572Y-91003952D01*
X123952191Y-91099190D01*
X123952191Y-91384905D01*
X123904572Y-91480143D01*
X123856953Y-91527762D01*
X123761715Y-91575381D01*
X123571238Y-91575381D01*
X123476000Y-91527762D01*
X124285524Y-90908714D02*
X124523619Y-91575381D01*
X124761715Y-90908714D02*
X124523619Y-91575381D01*
X124428381Y-91813476D01*
X124380762Y-91861095D01*
X124285524Y-91908714D01*
X126237906Y-91051571D02*
X126380763Y-91099190D01*
X126428382Y-91146810D01*
X126476001Y-91242048D01*
X126476001Y-91384905D01*
X126428382Y-91480143D01*
X126380763Y-91527762D01*
X126285525Y-91575381D01*
X125904572Y-91575381D01*
X125904572Y-90575381D01*
X126237906Y-90575381D01*
X126333144Y-90623000D01*
X126380763Y-90670619D01*
X126428382Y-90765857D01*
X126428382Y-90861095D01*
X126380763Y-90956333D01*
X126333144Y-91003952D01*
X126237906Y-91051571D01*
X125904572Y-91051571D01*
X126904572Y-91194429D02*
X127666477Y-91194429D01*
X128142667Y-91575381D02*
X128142667Y-90575381D01*
X128380762Y-90575381D01*
X128523620Y-90623000D01*
X128618858Y-90718238D01*
X128666477Y-90813476D01*
X128714096Y-91003952D01*
X128714096Y-91146810D01*
X128666477Y-91337286D01*
X128618858Y-91432524D01*
X128523620Y-91527762D01*
X128380762Y-91575381D01*
X128142667Y-91575381D01*
X129571239Y-91575381D02*
X129571239Y-91051571D01*
X129523620Y-90956333D01*
X129428382Y-90908714D01*
X129237905Y-90908714D01*
X129142667Y-90956333D01*
X129571239Y-91527762D02*
X129476001Y-91575381D01*
X129237905Y-91575381D01*
X129142667Y-91527762D01*
X129095048Y-91432524D01*
X129095048Y-91337286D01*
X129142667Y-91242048D01*
X129237905Y-91194429D01*
X129476001Y-91194429D01*
X129571239Y-91146810D01*
X129952191Y-90908714D02*
X130190286Y-91575381D01*
X130428382Y-90908714D02*
X130190286Y-91575381D01*
X130095048Y-91813476D01*
X130047429Y-91861095D01*
X129952191Y-91908714D01*
X123499809Y-93225381D02*
X123499809Y-92225381D01*
X123737904Y-92225381D01*
X123880762Y-92273000D01*
X123976000Y-92368238D01*
X124023619Y-92463476D01*
X124071238Y-92653952D01*
X124071238Y-92796810D01*
X124023619Y-92987286D01*
X123976000Y-93082524D01*
X123880762Y-93177762D01*
X123737904Y-93225381D01*
X123499809Y-93225381D01*
X124499809Y-93225381D02*
X124499809Y-92558714D01*
X124499809Y-92225381D02*
X124452190Y-92273000D01*
X124499809Y-92320619D01*
X124547428Y-92273000D01*
X124499809Y-92225381D01*
X124499809Y-92320619D01*
X125118856Y-93225381D02*
X125023618Y-93177762D01*
X124975999Y-93082524D01*
X124975999Y-92225381D01*
X125928381Y-93225381D02*
X125928381Y-92701571D01*
X125880762Y-92606333D01*
X125785524Y-92558714D01*
X125595047Y-92558714D01*
X125499809Y-92606333D01*
X125928381Y-93177762D02*
X125833143Y-93225381D01*
X125595047Y-93225381D01*
X125499809Y-93177762D01*
X125452190Y-93082524D01*
X125452190Y-92987286D01*
X125499809Y-92892048D01*
X125595047Y-92844429D01*
X125833143Y-92844429D01*
X125928381Y-92796810D01*
X126404571Y-93225381D02*
X126404571Y-92558714D01*
X126404571Y-92749190D02*
X126452190Y-92653952D01*
X126499809Y-92606333D01*
X126595047Y-92558714D01*
X126690286Y-92558714D01*
X127452191Y-93225381D02*
X127452191Y-92701571D01*
X127404572Y-92606333D01*
X127309334Y-92558714D01*
X127118857Y-92558714D01*
X127023619Y-92606333D01*
X127452191Y-93177762D02*
X127356953Y-93225381D01*
X127118857Y-93225381D01*
X127023619Y-93177762D01*
X126976000Y-93082524D01*
X126976000Y-92987286D01*
X127023619Y-92892048D01*
X127118857Y-92844429D01*
X127356953Y-92844429D01*
X127452191Y-92796810D01*
X160457143Y-80399381D02*
X160457143Y-79399381D01*
X160695238Y-79399381D01*
X160838096Y-79447000D01*
X160933334Y-79542238D01*
X160980953Y-79637476D01*
X161028572Y-79827952D01*
X161028572Y-79970810D01*
X160980953Y-80161286D01*
X160933334Y-80256524D01*
X160838096Y-80351762D01*
X160695238Y-80399381D01*
X160457143Y-80399381D01*
X161838096Y-80351762D02*
X161742858Y-80399381D01*
X161552381Y-80399381D01*
X161457143Y-80351762D01*
X161409524Y-80256524D01*
X161409524Y-79875571D01*
X161457143Y-79780333D01*
X161552381Y-79732714D01*
X161742858Y-79732714D01*
X161838096Y-79780333D01*
X161885715Y-79875571D01*
X161885715Y-79970810D01*
X161409524Y-80066048D01*
X162266667Y-80351762D02*
X162361905Y-80399381D01*
X162552381Y-80399381D01*
X162647620Y-80351762D01*
X162695239Y-80256524D01*
X162695239Y-80208905D01*
X162647620Y-80113667D01*
X162552381Y-80066048D01*
X162409524Y-80066048D01*
X162314286Y-80018429D01*
X162266667Y-79923190D01*
X162266667Y-79875571D01*
X162314286Y-79780333D01*
X162409524Y-79732714D01*
X162552381Y-79732714D01*
X162647620Y-79780333D01*
X163123810Y-80399381D02*
X163123810Y-79732714D01*
X163123810Y-79399381D02*
X163076191Y-79447000D01*
X163123810Y-79494619D01*
X163171429Y-79447000D01*
X163123810Y-79399381D01*
X163123810Y-79494619D01*
X164028572Y-79732714D02*
X164028572Y-80542238D01*
X163980953Y-80637476D01*
X163933334Y-80685095D01*
X163838095Y-80732714D01*
X163695238Y-80732714D01*
X163600000Y-80685095D01*
X164028572Y-80351762D02*
X163933334Y-80399381D01*
X163742857Y-80399381D01*
X163647619Y-80351762D01*
X163600000Y-80304143D01*
X163552381Y-80208905D01*
X163552381Y-79923190D01*
X163600000Y-79827952D01*
X163647619Y-79780333D01*
X163742857Y-79732714D01*
X163933334Y-79732714D01*
X164028572Y-79780333D01*
X164504762Y-79732714D02*
X164504762Y-80399381D01*
X164504762Y-79827952D02*
X164552381Y-79780333D01*
X164647619Y-79732714D01*
X164790477Y-79732714D01*
X164885715Y-79780333D01*
X164933334Y-79875571D01*
X164933334Y-80399381D01*
X165790477Y-80351762D02*
X165695239Y-80399381D01*
X165504762Y-80399381D01*
X165409524Y-80351762D01*
X165361905Y-80256524D01*
X165361905Y-79875571D01*
X165409524Y-79780333D01*
X165504762Y-79732714D01*
X165695239Y-79732714D01*
X165790477Y-79780333D01*
X165838096Y-79875571D01*
X165838096Y-79970810D01*
X165361905Y-80066048D01*
X166695239Y-80399381D02*
X166695239Y-79399381D01*
X166695239Y-80351762D02*
X166600001Y-80399381D01*
X166409524Y-80399381D01*
X166314286Y-80351762D01*
X166266667Y-80304143D01*
X166219048Y-80208905D01*
X166219048Y-79923190D01*
X166266667Y-79827952D01*
X166314286Y-79780333D01*
X166409524Y-79732714D01*
X166600001Y-79732714D01*
X166695239Y-79780333D01*
X168076191Y-80399381D02*
X167980953Y-80351762D01*
X167933334Y-80304143D01*
X167885715Y-80208905D01*
X167885715Y-79923190D01*
X167933334Y-79827952D01*
X167980953Y-79780333D01*
X168076191Y-79732714D01*
X168219049Y-79732714D01*
X168314287Y-79780333D01*
X168361906Y-79827952D01*
X168409525Y-79923190D01*
X168409525Y-80208905D01*
X168361906Y-80304143D01*
X168314287Y-80351762D01*
X168219049Y-80399381D01*
X168076191Y-80399381D01*
X168838096Y-79732714D02*
X168838096Y-80399381D01*
X168838096Y-79827952D02*
X168885715Y-79780333D01*
X168980953Y-79732714D01*
X169123811Y-79732714D01*
X169219049Y-79780333D01*
X169266668Y-79875571D01*
X169266668Y-80399381D01*
X169742858Y-80304143D02*
X169790477Y-80351762D01*
X169742858Y-80399381D01*
X169695239Y-80351762D01*
X169742858Y-80304143D01*
X169742858Y-80399381D01*
X169742858Y-79780333D02*
X169790477Y-79827952D01*
X169742858Y-79875571D01*
X169695239Y-79827952D01*
X169742858Y-79780333D01*
X169742858Y-79875571D01*
X160766666Y-82049381D02*
X160195237Y-82049381D01*
X160480951Y-82049381D02*
X160480951Y-81049381D01*
X160385713Y-81192238D01*
X160290475Y-81287476D01*
X160195237Y-81335095D01*
X161338094Y-81477952D02*
X161242856Y-81430333D01*
X161195237Y-81382714D01*
X161147618Y-81287476D01*
X161147618Y-81239857D01*
X161195237Y-81144619D01*
X161242856Y-81097000D01*
X161338094Y-81049381D01*
X161528571Y-81049381D01*
X161623809Y-81097000D01*
X161671428Y-81144619D01*
X161719047Y-81239857D01*
X161719047Y-81287476D01*
X161671428Y-81382714D01*
X161623809Y-81430333D01*
X161528571Y-81477952D01*
X161338094Y-81477952D01*
X161242856Y-81525571D01*
X161195237Y-81573190D01*
X161147618Y-81668429D01*
X161147618Y-81858905D01*
X161195237Y-81954143D01*
X161242856Y-82001762D01*
X161338094Y-82049381D01*
X161528571Y-82049381D01*
X161623809Y-82001762D01*
X161671428Y-81954143D01*
X161719047Y-81858905D01*
X161719047Y-81668429D01*
X161671428Y-81573190D01*
X161623809Y-81525571D01*
X161528571Y-81477952D01*
X163195238Y-81049381D02*
X163195238Y-81763667D01*
X163147618Y-81906524D01*
X163052380Y-82001762D01*
X162909523Y-82049381D01*
X162814285Y-82049381D01*
X164100000Y-81382714D02*
X164100000Y-82049381D01*
X163671428Y-81382714D02*
X163671428Y-81906524D01*
X163719047Y-82001762D01*
X163814285Y-82049381D01*
X163957143Y-82049381D01*
X164052381Y-82001762D01*
X164100000Y-81954143D01*
X164719047Y-82049381D02*
X164623809Y-82001762D01*
X164576190Y-81906524D01*
X164576190Y-81049381D01*
X165004762Y-81382714D02*
X165242857Y-82049381D01*
X165480953Y-81382714D02*
X165242857Y-82049381D01*
X165147619Y-82287476D01*
X165100000Y-82335095D01*
X165004762Y-82382714D01*
X166576191Y-81144619D02*
X166623810Y-81097000D01*
X166719048Y-81049381D01*
X166957144Y-81049381D01*
X167052382Y-81097000D01*
X167100001Y-81144619D01*
X167147620Y-81239857D01*
X167147620Y-81335095D01*
X167100001Y-81477952D01*
X166528572Y-82049381D01*
X167147620Y-82049381D01*
X167766667Y-81049381D02*
X167861906Y-81049381D01*
X167957144Y-81097000D01*
X168004763Y-81144619D01*
X168052382Y-81239857D01*
X168100001Y-81430333D01*
X168100001Y-81668429D01*
X168052382Y-81858905D01*
X168004763Y-81954143D01*
X167957144Y-82001762D01*
X167861906Y-82049381D01*
X167766667Y-82049381D01*
X167671429Y-82001762D01*
X167623810Y-81954143D01*
X167576191Y-81858905D01*
X167528572Y-81668429D01*
X167528572Y-81430333D01*
X167576191Y-81239857D01*
X167623810Y-81144619D01*
X167671429Y-81097000D01*
X167766667Y-81049381D01*
X169052382Y-82049381D02*
X168480953Y-82049381D01*
X168766667Y-82049381D02*
X168766667Y-81049381D01*
X168671429Y-81192238D01*
X168576191Y-81287476D01*
X168480953Y-81335095D01*
X169385715Y-81049381D02*
X170052382Y-81049381D01*
X169623810Y-82049381D01*
D12*
X138176571Y-81022000D02*
X138890857Y-81022000D01*
X138033714Y-81450571D02*
X138533714Y-79950571D01*
X139033714Y-81450571D01*
X140390857Y-81450571D02*
X139890857Y-80736286D01*
X139533714Y-81450571D02*
X139533714Y-79950571D01*
X140105142Y-79950571D01*
X140248000Y-80022000D01*
X140319428Y-80093429D01*
X140390857Y-80236286D01*
X140390857Y-80450571D01*
X140319428Y-80593429D01*
X140248000Y-80664857D01*
X140105142Y-80736286D01*
X139533714Y-80736286D01*
X141033714Y-81450571D02*
X141033714Y-79950571D01*
X141390857Y-79950571D01*
X141605142Y-80022000D01*
X141748000Y-80164857D01*
X141819428Y-80307714D01*
X141890857Y-80593429D01*
X141890857Y-80807714D01*
X141819428Y-81093429D01*
X141748000Y-81236286D01*
X141605142Y-81379143D01*
X141390857Y-81450571D01*
X141033714Y-81450571D01*
X142533714Y-79950571D02*
X142533714Y-81164857D01*
X142605142Y-81307714D01*
X142676571Y-81379143D01*
X142819428Y-81450571D01*
X143105142Y-81450571D01*
X143248000Y-81379143D01*
X143319428Y-81307714D01*
X143390857Y-81164857D01*
X143390857Y-79950571D01*
X144105143Y-81450571D02*
X144105143Y-79950571D01*
X144819429Y-81450571D02*
X144819429Y-79950571D01*
X145676572Y-81450571D01*
X145676572Y-79950571D01*
X146676572Y-79950571D02*
X146962286Y-79950571D01*
X147105144Y-80022000D01*
X147248001Y-80164857D01*
X147319429Y-80450571D01*
X147319429Y-80950571D01*
X147248001Y-81236286D01*
X147105144Y-81379143D01*
X146962286Y-81450571D01*
X146676572Y-81450571D01*
X146533715Y-81379143D01*
X146390858Y-81236286D01*
X146319429Y-80950571D01*
X146319429Y-80450571D01*
X146390858Y-80164857D01*
X146533715Y-80022000D01*
X146676572Y-79950571D01*
X140855143Y-122114571D02*
X140855143Y-123328857D01*
X140926571Y-123471714D01*
X140998000Y-123543143D01*
X141140857Y-123614571D01*
X141426571Y-123614571D01*
X141569429Y-123543143D01*
X141640857Y-123471714D01*
X141712286Y-123328857D01*
X141712286Y-122114571D01*
X142355143Y-123543143D02*
X142569429Y-123614571D01*
X142926572Y-123614571D01*
X143069429Y-123543143D01*
X143140858Y-123471714D01*
X143212286Y-123328857D01*
X143212286Y-123186000D01*
X143140858Y-123043143D01*
X143069429Y-122971714D01*
X142926572Y-122900286D01*
X142640858Y-122828857D01*
X142498000Y-122757429D01*
X142426572Y-122686000D01*
X142355143Y-122543143D01*
X142355143Y-122400286D01*
X142426572Y-122257429D01*
X142498000Y-122186000D01*
X142640858Y-122114571D01*
X142998000Y-122114571D01*
X143212286Y-122186000D01*
X144355143Y-122828857D02*
X144569429Y-122900286D01*
X144640857Y-122971714D01*
X144712286Y-123114571D01*
X144712286Y-123328857D01*
X144640857Y-123471714D01*
X144569429Y-123543143D01*
X144426571Y-123614571D01*
X143855143Y-123614571D01*
X143855143Y-122114571D01*
X144355143Y-122114571D01*
X144498000Y-122186000D01*
X144569429Y-122257429D01*
X144640857Y-122400286D01*
X144640857Y-122543143D01*
X144569429Y-122686000D01*
X144498000Y-122757429D01*
X144355143Y-122828857D01*
X143855143Y-122828857D01*
X157631428Y-101591000D02*
X158345714Y-101591000D01*
X157488571Y-102019571D02*
X157988571Y-100519571D01*
X158488571Y-102019571D01*
X158988571Y-102019571D02*
X158988571Y-101019571D01*
X158988571Y-101162429D02*
X159059999Y-101091000D01*
X159202857Y-101019571D01*
X159417142Y-101019571D01*
X159559999Y-101091000D01*
X159631428Y-101233857D01*
X159631428Y-102019571D01*
X159631428Y-101233857D02*
X159702857Y-101091000D01*
X159845714Y-101019571D01*
X160059999Y-101019571D01*
X160202857Y-101091000D01*
X160274285Y-101233857D01*
X160274285Y-102019571D01*
X160988571Y-102019571D02*
X160988571Y-100519571D01*
X160988571Y-101091000D02*
X161131428Y-101019571D01*
X161417142Y-101019571D01*
X161559999Y-101091000D01*
X161631428Y-101162429D01*
X161702857Y-101305286D01*
X161702857Y-101733857D01*
X161631428Y-101876714D01*
X161559999Y-101948143D01*
X161417142Y-102019571D01*
X161131428Y-102019571D01*
X160988571Y-101948143D01*
X162345714Y-102019571D02*
X162345714Y-101019571D01*
X162345714Y-100519571D02*
X162274285Y-100591000D01*
X162345714Y-100662429D01*
X162417142Y-100591000D01*
X162345714Y-100519571D01*
X162345714Y-100662429D01*
X163274286Y-102019571D02*
X163131428Y-101948143D01*
X163060000Y-101805286D01*
X163060000Y-100519571D01*
X163845714Y-102019571D02*
X163845714Y-101019571D01*
X163845714Y-100519571D02*
X163774285Y-100591000D01*
X163845714Y-100662429D01*
X163917142Y-100591000D01*
X163845714Y-100519571D01*
X163845714Y-100662429D01*
X165202857Y-101019571D02*
X165202857Y-102233857D01*
X165131428Y-102376714D01*
X165060000Y-102448143D01*
X164917143Y-102519571D01*
X164702857Y-102519571D01*
X164560000Y-102448143D01*
X165202857Y-101948143D02*
X165060000Y-102019571D01*
X164774286Y-102019571D01*
X164631428Y-101948143D01*
X164560000Y-101876714D01*
X164488571Y-101733857D01*
X164488571Y-101305286D01*
X164560000Y-101162429D01*
X164631428Y-101091000D01*
X164774286Y-101019571D01*
X165060000Y-101019571D01*
X165202857Y-101091000D01*
X165917143Y-102019571D02*
X165917143Y-100519571D01*
X166560000Y-102019571D02*
X166560000Y-101233857D01*
X166488571Y-101091000D01*
X166345714Y-101019571D01*
X166131429Y-101019571D01*
X165988571Y-101091000D01*
X165917143Y-101162429D01*
X167060000Y-101019571D02*
X167631429Y-101019571D01*
X167274286Y-100519571D02*
X167274286Y-101805286D01*
X167345714Y-101948143D01*
X167488572Y-102019571D01*
X167631429Y-102019571D01*
X160417144Y-103569571D02*
X160774287Y-104569571D01*
X161131429Y-103569571D01*
X162488572Y-104569571D02*
X161631429Y-104569571D01*
X162060001Y-104569571D02*
X162060001Y-103069571D01*
X161917144Y-103283857D01*
X161774286Y-103426714D01*
X161631429Y-103498143D01*
X163131429Y-104426714D02*
X163202857Y-104498143D01*
X163131429Y-104569571D01*
X163060000Y-104498143D01*
X163131429Y-104426714D01*
X163131429Y-104569571D01*
X164131429Y-103069571D02*
X164274286Y-103069571D01*
X164417143Y-103141000D01*
X164488572Y-103212429D01*
X164560001Y-103355286D01*
X164631429Y-103641000D01*
X164631429Y-103998143D01*
X164560001Y-104283857D01*
X164488572Y-104426714D01*
X164417143Y-104498143D01*
X164274286Y-104569571D01*
X164131429Y-104569571D01*
X163988572Y-104498143D01*
X163917143Y-104426714D01*
X163845715Y-104283857D01*
X163774286Y-103998143D01*
X163774286Y-103641000D01*
X163845715Y-103355286D01*
X163917143Y-103212429D01*
X163988572Y-103141000D01*
X164131429Y-103069571D01*
X154183143Y-97730571D02*
X155183143Y-97730571D01*
X154183143Y-99230571D01*
X155183143Y-99230571D01*
X155968857Y-99230571D02*
X155825999Y-99159143D01*
X155754571Y-99016286D01*
X155754571Y-97730571D01*
X157183142Y-99230571D02*
X157183142Y-98444857D01*
X157111713Y-98302000D01*
X156968856Y-98230571D01*
X156683142Y-98230571D01*
X156540285Y-98302000D01*
X157183142Y-99159143D02*
X157040285Y-99230571D01*
X156683142Y-99230571D01*
X156540285Y-99159143D01*
X156468856Y-99016286D01*
X156468856Y-98873429D01*
X156540285Y-98730571D01*
X156683142Y-98659143D01*
X157040285Y-98659143D01*
X157183142Y-98587714D01*
X157683142Y-98230571D02*
X158254571Y-98230571D01*
X157897428Y-97730571D02*
X157897428Y-99016286D01*
X157968856Y-99159143D01*
X158111714Y-99230571D01*
X158254571Y-99230571D01*
X159397428Y-99230571D02*
X159397428Y-98444857D01*
X159325999Y-98302000D01*
X159183142Y-98230571D01*
X158897428Y-98230571D01*
X158754571Y-98302000D01*
X159397428Y-99159143D02*
X159254571Y-99230571D01*
X158897428Y-99230571D01*
X158754571Y-99159143D01*
X158683142Y-99016286D01*
X158683142Y-98873429D01*
X158754571Y-98730571D01*
X158897428Y-98659143D01*
X159254571Y-98659143D01*
X159397428Y-98587714D01*
X160111714Y-98230571D02*
X160111714Y-99230571D01*
X160111714Y-98373429D02*
X160183142Y-98302000D01*
X160326000Y-98230571D01*
X160540285Y-98230571D01*
X160683142Y-98302000D01*
X160754571Y-98444857D01*
X160754571Y-99230571D01*
X163040285Y-97730571D02*
X163040285Y-98802000D01*
X162968857Y-99016286D01*
X162826000Y-99159143D01*
X162611714Y-99230571D01*
X162468857Y-99230571D01*
X164397428Y-99230571D02*
X164397428Y-98444857D01*
X164325999Y-98302000D01*
X164183142Y-98230571D01*
X163897428Y-98230571D01*
X163754571Y-98302000D01*
X164397428Y-99159143D02*
X164254571Y-99230571D01*
X163897428Y-99230571D01*
X163754571Y-99159143D01*
X163683142Y-99016286D01*
X163683142Y-98873429D01*
X163754571Y-98730571D01*
X163897428Y-98659143D01*
X164254571Y-98659143D01*
X164397428Y-98587714D01*
X165111714Y-99230571D02*
X165111714Y-97730571D01*
X165254571Y-98659143D02*
X165683142Y-99230571D01*
X165683142Y-98230571D02*
X165111714Y-98802000D01*
X166968857Y-98230571D02*
X166968857Y-99230571D01*
X166326000Y-98230571D02*
X166326000Y-99016286D01*
X166397428Y-99159143D01*
X166540286Y-99230571D01*
X166754571Y-99230571D01*
X166897428Y-99159143D01*
X166968857Y-99087714D01*
X167683143Y-98230571D02*
X167683143Y-99730571D01*
X167683143Y-98302000D02*
X167826000Y-98230571D01*
X168111714Y-98230571D01*
X168254571Y-98302000D01*
X168326000Y-98373429D01*
X168397429Y-98516286D01*
X168397429Y-98944857D01*
X168326000Y-99087714D01*
X168254571Y-99159143D01*
X168111714Y-99230571D01*
X167826000Y-99230571D01*
X167683143Y-99159143D01*
X169254572Y-99230571D02*
X169111714Y-99159143D01*
X169040286Y-99087714D01*
X168968857Y-98944857D01*
X168968857Y-98516286D01*
X169040286Y-98373429D01*
X169111714Y-98302000D01*
X169254572Y-98230571D01*
X169468857Y-98230571D01*
X169611714Y-98302000D01*
X169683143Y-98373429D01*
X169754572Y-98516286D01*
X169754572Y-98944857D01*
X169683143Y-99087714D01*
X169611714Y-99159143D01*
X169468857Y-99230571D01*
X169254572Y-99230571D01*
X170254572Y-98230571D02*
X170611715Y-99230571D01*
X170968857Y-98230571D01*
X171540286Y-99230571D02*
X171540286Y-98230571D01*
X171540286Y-97730571D02*
X171468857Y-97802000D01*
X171540286Y-97873429D01*
X171611714Y-97802000D01*
X171540286Y-97730571D01*
X171540286Y-97873429D01*
X172897429Y-99159143D02*
X172754572Y-99230571D01*
X172468858Y-99230571D01*
X172326000Y-99159143D01*
X172254572Y-99087714D01*
X172183143Y-98944857D01*
X172183143Y-98516286D01*
X172254572Y-98373429D01*
X172326000Y-98302000D01*
X172468858Y-98230571D01*
X172754572Y-98230571D01*
X172897429Y-98302000D01*
D13*
X136398000Y-87122000D02*
X136398000Y-84582000D01*
X136398000Y-84582000D02*
X133728000Y-84582000D01*
X133728000Y-87122000D02*
X133728000Y-125352000D01*
X133728000Y-81912000D02*
X133728000Y-84582000D01*
X149098000Y-84582000D02*
X151768000Y-84582000D01*
X149098000Y-84582000D02*
X149098000Y-122682000D01*
X149098000Y-122682000D02*
X151768000Y-122682000D01*
X136398000Y-87122000D02*
X133728000Y-87122000D01*
X136398000Y-87122000D02*
X136398000Y-122682000D01*
X136398000Y-122682000D02*
X133728000Y-122682000D01*
X133728000Y-125352000D02*
X151768000Y-125352000D01*
X151768000Y-125352000D02*
X151768000Y-81912000D01*
X151768000Y-81912000D02*
X133728000Y-81912000D01*
X165636000Y-116252000D02*
X165636000Y-125052000D01*
X165636000Y-125052000D02*
X156436000Y-125052000D01*
X162936000Y-110352000D02*
X165636000Y-110352000D01*
X165636000Y-110352000D02*
X165636000Y-112252000D01*
X156436000Y-125052000D02*
X156436000Y-110352000D01*
X156436000Y-110352000D02*
X159036000Y-110352000D01*
X154626000Y-92262000D02*
X157286000Y-92262000D01*
X154626000Y-89662000D02*
X154626000Y-92262000D01*
X157286000Y-89662000D02*
X157286000Y-92262000D01*
X154626000Y-89662000D02*
X157286000Y-89662000D01*
X154626000Y-88392000D02*
X154626000Y-87062000D01*
X154626000Y-87062000D02*
X155956000Y-87062000D01*
X128696000Y-113214000D02*
X132416000Y-113214000D01*
X132416000Y-113214000D02*
X132416000Y-103194000D01*
X132416000Y-103194000D02*
X128696000Y-103194000D01*
X128696000Y-103194000D02*
X128696000Y-113214000D01*
X130556000Y-114444000D02*
X130556000Y-113214000D01*
X130556000Y-101964000D02*
X130556000Y-103194000D01*
D14*
X179034000Y-112776000D02*
X179034000Y-102906000D01*
X179034000Y-102906000D02*
X170534000Y-102906000D01*
X170534000Y-102906000D02*
X170534000Y-114726000D01*
X170534000Y-114726000D02*
X174784000Y-114726000D01*
X126678000Y-112776000D02*
X126678000Y-102906000D01*
X126678000Y-102906000D02*
X118178000Y-102906000D01*
X118178000Y-102906000D02*
X118178000Y-114726000D01*
X118178000Y-114726000D02*
X122428000Y-114726000D01*
D13*
X160558000Y-90972000D02*
X170658000Y-90972000D01*
X160558000Y-90932000D02*
X170658000Y-90932000D01*
X160558000Y-90892000D02*
X170658000Y-90892000D01*
X160559000Y-90852000D02*
X170657000Y-90852000D01*
X160560000Y-90812000D02*
X170656000Y-90812000D01*
X160561000Y-90772000D02*
X170655000Y-90772000D01*
X160563000Y-90732000D02*
X170653000Y-90732000D01*
X160565000Y-90692000D02*
X170651000Y-90692000D01*
X160568000Y-90652000D02*
X170648000Y-90652000D01*
X160570000Y-90612000D02*
X170646000Y-90612000D01*
X160573000Y-90572000D02*
X170643000Y-90572000D01*
X160577000Y-90532000D02*
X170639000Y-90532000D01*
X160580000Y-90492000D02*
X170636000Y-90492000D01*
X160584000Y-90452000D02*
X170632000Y-90452000D01*
X160588000Y-90412000D02*
X170628000Y-90412000D01*
X160593000Y-90372000D02*
X170623000Y-90372000D01*
X160598000Y-90332000D02*
X170618000Y-90332000D01*
X160603000Y-90292000D02*
X170613000Y-90292000D01*
X160609000Y-90251000D02*
X170607000Y-90251000D01*
X160615000Y-90211000D02*
X170601000Y-90211000D01*
X160621000Y-90171000D02*
X170595000Y-90171000D01*
X160627000Y-90131000D02*
X170589000Y-90131000D01*
X160634000Y-90091000D02*
X170582000Y-90091000D01*
X160641000Y-90051000D02*
X170575000Y-90051000D01*
X160649000Y-90011000D02*
X170567000Y-90011000D01*
X160657000Y-89971000D02*
X170559000Y-89971000D01*
X160665000Y-89931000D02*
X170551000Y-89931000D01*
X160673000Y-89891000D02*
X170543000Y-89891000D01*
X160682000Y-89851000D02*
X170534000Y-89851000D01*
X160691000Y-89811000D02*
X170525000Y-89811000D01*
X160701000Y-89771000D02*
X170515000Y-89771000D01*
X160711000Y-89731000D02*
X170505000Y-89731000D01*
X160721000Y-89691000D02*
X170495000Y-89691000D01*
X160732000Y-89651000D02*
X164427000Y-89651000D01*
X166789000Y-89651000D02*
X170484000Y-89651000D01*
X160743000Y-89611000D02*
X164427000Y-89611000D01*
X166789000Y-89611000D02*
X170473000Y-89611000D01*
X160754000Y-89571000D02*
X164427000Y-89571000D01*
X166789000Y-89571000D02*
X170462000Y-89571000D01*
X160765000Y-89531000D02*
X164427000Y-89531000D01*
X166789000Y-89531000D02*
X170451000Y-89531000D01*
X160777000Y-89491000D02*
X164427000Y-89491000D01*
X166789000Y-89491000D02*
X170439000Y-89491000D01*
X160790000Y-89451000D02*
X164427000Y-89451000D01*
X166789000Y-89451000D02*
X170426000Y-89451000D01*
X160802000Y-89411000D02*
X164427000Y-89411000D01*
X166789000Y-89411000D02*
X170414000Y-89411000D01*
X160816000Y-89371000D02*
X164427000Y-89371000D01*
X166789000Y-89371000D02*
X170400000Y-89371000D01*
X160829000Y-89331000D02*
X164427000Y-89331000D01*
X166789000Y-89331000D02*
X170387000Y-89331000D01*
X160843000Y-89291000D02*
X164427000Y-89291000D01*
X166789000Y-89291000D02*
X170373000Y-89291000D01*
X160857000Y-89251000D02*
X164427000Y-89251000D01*
X166789000Y-89251000D02*
X170359000Y-89251000D01*
X160871000Y-89211000D02*
X164427000Y-89211000D01*
X166789000Y-89211000D02*
X170345000Y-89211000D01*
X160886000Y-89171000D02*
X164427000Y-89171000D01*
X166789000Y-89171000D02*
X170330000Y-89171000D01*
X160902000Y-89131000D02*
X164427000Y-89131000D01*
X166789000Y-89131000D02*
X170314000Y-89131000D01*
X160917000Y-89091000D02*
X164427000Y-89091000D01*
X166789000Y-89091000D02*
X170299000Y-89091000D01*
X160934000Y-89051000D02*
X164427000Y-89051000D01*
X166789000Y-89051000D02*
X170282000Y-89051000D01*
X160950000Y-89011000D02*
X164427000Y-89011000D01*
X166789000Y-89011000D02*
X170266000Y-89011000D01*
X160967000Y-88971000D02*
X164427000Y-88971000D01*
X166789000Y-88971000D02*
X170249000Y-88971000D01*
X160984000Y-88931000D02*
X164427000Y-88931000D01*
X166789000Y-88931000D02*
X170232000Y-88931000D01*
X161002000Y-88891000D02*
X164427000Y-88891000D01*
X166789000Y-88891000D02*
X170214000Y-88891000D01*
X161020000Y-88851000D02*
X164427000Y-88851000D01*
X166789000Y-88851000D02*
X170196000Y-88851000D01*
X161039000Y-88811000D02*
X164427000Y-88811000D01*
X166789000Y-88811000D02*
X170177000Y-88811000D01*
X161058000Y-88771000D02*
X164427000Y-88771000D01*
X166789000Y-88771000D02*
X170158000Y-88771000D01*
X161077000Y-88731000D02*
X164427000Y-88731000D01*
X166789000Y-88731000D02*
X170139000Y-88731000D01*
X161097000Y-88691000D02*
X164427000Y-88691000D01*
X166789000Y-88691000D02*
X170119000Y-88691000D01*
X161117000Y-88651000D02*
X164427000Y-88651000D01*
X166789000Y-88651000D02*
X170099000Y-88651000D01*
X161138000Y-88611000D02*
X164427000Y-88611000D01*
X166789000Y-88611000D02*
X170078000Y-88611000D01*
X161159000Y-88571000D02*
X164427000Y-88571000D01*
X166789000Y-88571000D02*
X170057000Y-88571000D01*
X161180000Y-88531000D02*
X164427000Y-88531000D01*
X166789000Y-88531000D02*
X170036000Y-88531000D01*
X161203000Y-88491000D02*
X164427000Y-88491000D01*
X166789000Y-88491000D02*
X170013000Y-88491000D01*
X161225000Y-88451000D02*
X164427000Y-88451000D01*
X166789000Y-88451000D02*
X169991000Y-88451000D01*
X161248000Y-88411000D02*
X164427000Y-88411000D01*
X166789000Y-88411000D02*
X169968000Y-88411000D01*
X161272000Y-88371000D02*
X164427000Y-88371000D01*
X166789000Y-88371000D02*
X169944000Y-88371000D01*
X161296000Y-88331000D02*
X164427000Y-88331000D01*
X166789000Y-88331000D02*
X169920000Y-88331000D01*
X161320000Y-88291000D02*
X164427000Y-88291000D01*
X166789000Y-88291000D02*
X169896000Y-88291000D01*
X161345000Y-88251000D02*
X164427000Y-88251000D01*
X166789000Y-88251000D02*
X169871000Y-88251000D01*
X161371000Y-88211000D02*
X164427000Y-88211000D01*
X166789000Y-88211000D02*
X169845000Y-88211000D01*
X161397000Y-88171000D02*
X164427000Y-88171000D01*
X166789000Y-88171000D02*
X169819000Y-88171000D01*
X161423000Y-88131000D02*
X164427000Y-88131000D01*
X166789000Y-88131000D02*
X169793000Y-88131000D01*
X161451000Y-88091000D02*
X164427000Y-88091000D01*
X166789000Y-88091000D02*
X169765000Y-88091000D01*
X161478000Y-88051000D02*
X164427000Y-88051000D01*
X166789000Y-88051000D02*
X169738000Y-88051000D01*
X161507000Y-88011000D02*
X164427000Y-88011000D01*
X166789000Y-88011000D02*
X169709000Y-88011000D01*
X161536000Y-87971000D02*
X164427000Y-87971000D01*
X166789000Y-87971000D02*
X169680000Y-87971000D01*
X161565000Y-87931000D02*
X164427000Y-87931000D01*
X166789000Y-87931000D02*
X169651000Y-87931000D01*
X161595000Y-87891000D02*
X164427000Y-87891000D01*
X166789000Y-87891000D02*
X169621000Y-87891000D01*
X161626000Y-87851000D02*
X164427000Y-87851000D01*
X166789000Y-87851000D02*
X169590000Y-87851000D01*
X161657000Y-87811000D02*
X164427000Y-87811000D01*
X166789000Y-87811000D02*
X169559000Y-87811000D01*
X161689000Y-87771000D02*
X164427000Y-87771000D01*
X166789000Y-87771000D02*
X169527000Y-87771000D01*
X161722000Y-87731000D02*
X164427000Y-87731000D01*
X166789000Y-87731000D02*
X169494000Y-87731000D01*
X161755000Y-87691000D02*
X164427000Y-87691000D01*
X166789000Y-87691000D02*
X169461000Y-87691000D01*
X161789000Y-87651000D02*
X164427000Y-87651000D01*
X166789000Y-87651000D02*
X169427000Y-87651000D01*
X161824000Y-87611000D02*
X164427000Y-87611000D01*
X166789000Y-87611000D02*
X169392000Y-87611000D01*
X161860000Y-87571000D02*
X164427000Y-87571000D01*
X166789000Y-87571000D02*
X169356000Y-87571000D01*
X161896000Y-87531000D02*
X164427000Y-87531000D01*
X166789000Y-87531000D02*
X169320000Y-87531000D01*
X161933000Y-87491000D02*
X164427000Y-87491000D01*
X166789000Y-87491000D02*
X169283000Y-87491000D01*
X161971000Y-87451000D02*
X164427000Y-87451000D01*
X166789000Y-87451000D02*
X169245000Y-87451000D01*
X162010000Y-87411000D02*
X164427000Y-87411000D01*
X166789000Y-87411000D02*
X169206000Y-87411000D01*
X162049000Y-87371000D02*
X164427000Y-87371000D01*
X166789000Y-87371000D02*
X169167000Y-87371000D01*
X162090000Y-87331000D02*
X164427000Y-87331000D01*
X166789000Y-87331000D02*
X169126000Y-87331000D01*
X162131000Y-87291000D02*
X169085000Y-87291000D01*
X162173000Y-87251000D02*
X169043000Y-87251000D01*
X162217000Y-87211000D02*
X168999000Y-87211000D01*
X162261000Y-87171000D02*
X168955000Y-87171000D01*
X162306000Y-87131000D02*
X168910000Y-87131000D01*
X162353000Y-87091000D02*
X168863000Y-87091000D01*
X162401000Y-87051000D02*
X168815000Y-87051000D01*
X162450000Y-87011000D02*
X168766000Y-87011000D01*
X162500000Y-86971000D02*
X168716000Y-86971000D01*
X162551000Y-86931000D02*
X168665000Y-86931000D01*
X162604000Y-86891000D02*
X168612000Y-86891000D01*
X162659000Y-86851000D02*
X168557000Y-86851000D01*
X162714000Y-86811000D02*
X168502000Y-86811000D01*
X162772000Y-86771000D02*
X168444000Y-86771000D01*
X162831000Y-86731000D02*
X168385000Y-86731000D01*
X162893000Y-86691000D02*
X168323000Y-86691000D01*
X162956000Y-86651000D02*
X168260000Y-86651000D01*
X163021000Y-86611000D02*
X168195000Y-86611000D01*
X163089000Y-86571000D02*
X168127000Y-86571000D01*
X163159000Y-86531000D02*
X168057000Y-86531000D01*
X163231000Y-86491000D02*
X167985000Y-86491000D01*
X163307000Y-86451000D02*
X167909000Y-86451000D01*
X163386000Y-86411000D02*
X167830000Y-86411000D01*
X163468000Y-86371000D02*
X167748000Y-86371000D01*
X163555000Y-86331000D02*
X167661000Y-86331000D01*
X163646000Y-86291000D02*
X167570000Y-86291000D01*
X163742000Y-86251000D02*
X167474000Y-86251000D01*
X163845000Y-86211000D02*
X167371000Y-86211000D01*
X163954000Y-86171000D02*
X167262000Y-86171000D01*
X164072000Y-86131000D02*
X167144000Y-86131000D01*
X164201000Y-86091000D02*
X167015000Y-86091000D01*
X164343000Y-86051000D02*
X166873000Y-86051000D01*
X164504000Y-86011000D02*
X166712000Y-86011000D01*
X164695000Y-85971000D02*
X166521000Y-85971000D01*
X164936000Y-85931000D02*
X166280000Y-85931000D01*
X165329000Y-85891000D02*
X165887000Y-85891000D01*
X165608000Y-96172000D02*
X165608000Y-94672000D01*
X164858000Y-95422000D02*
X166358000Y-95422000D01*
X164428806Y-86020475D02*
G75*
G03X164428000Y-95923333I1179194J-4951525D01*
G01*
X166787194Y-86020475D02*
G75*
G02X166788000Y-95923333I-1179194J-4951525D01*
G01*
X166787194Y-86020475D02*
G75*
G03X164428000Y-86020667I-1179194J-4951525D01*
G01*
D11*
X166714571Y-120106761D02*
X166762190Y-119963904D01*
X166809810Y-119916285D01*
X166905048Y-119868666D01*
X167047905Y-119868666D01*
X167143143Y-119916285D01*
X167190762Y-119963904D01*
X167238381Y-120059142D01*
X167238381Y-120440095D01*
X166238381Y-120440095D01*
X166238381Y-120106761D01*
X166286000Y-120011523D01*
X166333619Y-119963904D01*
X166428857Y-119916285D01*
X166524095Y-119916285D01*
X166619333Y-119963904D01*
X166666952Y-120011523D01*
X166714571Y-120106761D01*
X166714571Y-120440095D01*
X167238381Y-118916285D02*
X167238381Y-119487714D01*
X167238381Y-119202000D02*
X166238381Y-119202000D01*
X166381238Y-119297238D01*
X166476476Y-119392476D01*
X166524095Y-119487714D01*
X155622667Y-85514381D02*
X155622667Y-86228667D01*
X155575047Y-86371524D01*
X155479809Y-86466762D01*
X155336952Y-86514381D01*
X155241714Y-86514381D01*
X156622667Y-86514381D02*
X156051238Y-86514381D01*
X156336952Y-86514381D02*
X156336952Y-85514381D01*
X156241714Y-85657238D01*
X156146476Y-85752476D01*
X156051238Y-85800095D01*
X128468381Y-104306666D02*
X127992190Y-104640000D01*
X128468381Y-104878095D02*
X127468381Y-104878095D01*
X127468381Y-104497142D01*
X127516000Y-104401904D01*
X127563619Y-104354285D01*
X127658857Y-104306666D01*
X127801714Y-104306666D01*
X127896952Y-104354285D01*
X127944571Y-104401904D01*
X127992190Y-104497142D01*
X127992190Y-104878095D01*
X128468381Y-103354285D02*
X128468381Y-103925714D01*
X128468381Y-103640000D02*
X127468381Y-103640000D01*
X127611238Y-103735238D01*
X127706476Y-103830476D01*
X127754095Y-103925714D01*
D15*
X175152905Y-102174524D02*
X175152905Y-100904524D01*
X175636714Y-100904524D01*
X175757667Y-100965000D01*
X175818143Y-101025476D01*
X175878619Y-101146429D01*
X175878619Y-101327857D01*
X175818143Y-101448810D01*
X175757667Y-101509286D01*
X175636714Y-101569762D01*
X175152905Y-101569762D01*
X176301953Y-100904524D02*
X176604334Y-102174524D01*
X176846238Y-101267381D01*
X177088143Y-102174524D01*
X177390524Y-100904524D01*
X178539572Y-102174524D02*
X177813858Y-102174524D01*
X178176715Y-102174524D02*
X178176715Y-100904524D01*
X178055763Y-101085952D01*
X177934810Y-101206905D01*
X177813858Y-101267381D01*
X120129905Y-102174524D02*
X120129905Y-100904524D01*
X120613714Y-100904524D01*
X120734667Y-100965000D01*
X120795143Y-101025476D01*
X120855619Y-101146429D01*
X120855619Y-101327857D01*
X120795143Y-101448810D01*
X120734667Y-101509286D01*
X120613714Y-101569762D01*
X120129905Y-101569762D01*
X121278953Y-100904524D02*
X121581334Y-102174524D01*
X121823238Y-101267381D01*
X122065143Y-102174524D01*
X122367524Y-100904524D01*
X122851334Y-102174524D02*
X122851334Y-100904524D01*
X123153715Y-100904524D01*
X123335143Y-100965000D01*
X123456096Y-101085952D01*
X123516572Y-101206905D01*
X123577048Y-101448810D01*
X123577048Y-101630238D01*
X123516572Y-101872143D01*
X123456096Y-101993095D01*
X123335143Y-102114048D01*
X123153715Y-102174524D01*
X122851334Y-102174524D01*
X124786572Y-102174524D02*
X124060858Y-102174524D01*
X124423715Y-102174524D02*
X124423715Y-100904524D01*
X124302763Y-101085952D01*
X124181810Y-101206905D01*
X124060858Y-101267381D01*
D11*
X172061143Y-91098666D02*
X172108762Y-91146285D01*
X172156381Y-91289142D01*
X172156381Y-91384380D01*
X172108762Y-91527238D01*
X172013524Y-91622476D01*
X171918286Y-91670095D01*
X171727810Y-91717714D01*
X171584952Y-91717714D01*
X171394476Y-91670095D01*
X171299238Y-91622476D01*
X171204000Y-91527238D01*
X171156381Y-91384380D01*
X171156381Y-91289142D01*
X171204000Y-91146285D01*
X171251619Y-91098666D01*
X172156381Y-90146285D02*
X172156381Y-90717714D01*
X172156381Y-90432000D02*
X171156381Y-90432000D01*
X171299238Y-90527238D01*
X171394476Y-90622476D01*
X171442095Y-90717714D01*
M02*
