G04 #@! TF.FileFunction,Copper,L2,Bot,Signal*
%FSLAX46Y46*%
G04 Gerber Fmt 4.6, Leading zero omitted, Abs format (unit mm)*
G04 Created by KiCad (PCBNEW 4.0.6) date Wed Jul 19 18:28:27 2017*
%MOMM*%
%LPD*%
G01*
G04 APERTURE LIST*
%ADD10C,0.100000*%
%ADD11R,1.600000X1.600000*%
%ADD12O,1.600000X1.600000*%
%ADD13R,3.500000X3.500000*%
%ADD14R,1.700000X1.700000*%
%ADD15O,1.700000X1.700000*%
%ADD16C,2.400000*%
%ADD17O,2.400000X2.400000*%
%ADD18C,6.400000*%
%ADD19R,2.700000X2.700000*%
%ADD20C,2.700000*%
%ADD21R,2.000000X2.000000*%
%ADD22C,2.000000*%
%ADD23C,1.000000*%
%ADD24C,0.609600*%
%ADD25C,0.254000*%
G04 APERTURE END LIST*
D10*
D11*
X135128000Y-85852000D03*
D12*
X150368000Y-118872000D03*
X135128000Y-88392000D03*
X150368000Y-116332000D03*
X135128000Y-90932000D03*
X150368000Y-113792000D03*
X135128000Y-93472000D03*
X150368000Y-111252000D03*
X135128000Y-96012000D03*
X150368000Y-108712000D03*
X135128000Y-98552000D03*
X150368000Y-106172000D03*
X135128000Y-101092000D03*
X150368000Y-103632000D03*
X135128000Y-103632000D03*
X150368000Y-101092000D03*
X135128000Y-106172000D03*
X150368000Y-98552000D03*
X135128000Y-108712000D03*
X150368000Y-96012000D03*
X135128000Y-111252000D03*
X150368000Y-93472000D03*
X135128000Y-113792000D03*
X150368000Y-90932000D03*
X135128000Y-116332000D03*
X150368000Y-88392000D03*
X135128000Y-118872000D03*
X150368000Y-85852000D03*
X135128000Y-121412000D03*
X150368000Y-121412000D03*
D13*
X161036000Y-111252000D03*
X161036000Y-117252000D03*
X165736000Y-114252000D03*
D14*
X155956000Y-88392000D03*
D15*
X155956000Y-90932000D03*
D16*
X130556000Y-115824000D03*
D17*
X130556000Y-100584000D03*
D18*
X120396000Y-121920000D03*
X176784000Y-121920000D03*
X176784000Y-79756000D03*
X120396000Y-79756000D03*
D19*
X174784000Y-112776000D03*
D20*
X174784000Y-108816000D03*
X174784000Y-104856000D03*
D19*
X122428000Y-112776000D03*
D20*
X122428000Y-108816000D03*
X122428000Y-104856000D03*
D21*
X165608000Y-93472000D03*
D22*
X165608000Y-88472000D03*
D23*
X135128000Y-106172000D02*
X131572000Y-106172000D01*
X130556000Y-105156000D02*
X130556000Y-100584000D01*
X131572000Y-106172000D02*
X130556000Y-105156000D01*
D24*
X150368000Y-90932000D02*
X155956000Y-90932000D01*
D23*
X122428000Y-108816000D02*
X129644000Y-108816000D01*
X130556000Y-109728000D02*
X130556000Y-115824000D01*
X129644000Y-108816000D02*
X130556000Y-109728000D01*
D25*
G36*
X173534741Y-77580811D02*
X172949667Y-78989825D01*
X172948336Y-80515482D01*
X173530950Y-81925515D01*
X174608811Y-83005259D01*
X176017825Y-83590333D01*
X177543482Y-83591664D01*
X178953515Y-83009050D01*
X179630000Y-82333745D01*
X179630000Y-119342724D01*
X178959189Y-118670741D01*
X177550175Y-118085667D01*
X176024518Y-118084336D01*
X174614485Y-118666950D01*
X173534741Y-119744811D01*
X172949667Y-121153825D01*
X172948336Y-122679482D01*
X173530950Y-124089515D01*
X174206255Y-124766000D01*
X122973276Y-124766000D01*
X123645259Y-124095189D01*
X124230333Y-122686175D01*
X124231664Y-121160518D01*
X123649050Y-119750485D01*
X122571189Y-118670741D01*
X121162175Y-118085667D01*
X119636518Y-118084336D01*
X118226485Y-118666950D01*
X117550000Y-119342255D01*
X117550000Y-105249109D01*
X120442657Y-105249109D01*
X120744218Y-105978943D01*
X121302120Y-106537819D01*
X122021087Y-106836361D01*
X121305057Y-107132218D01*
X120746181Y-107690120D01*
X120443346Y-108419427D01*
X120442657Y-109209109D01*
X120744218Y-109938943D01*
X121302120Y-110497819D01*
X122031427Y-110800654D01*
X122821109Y-110801343D01*
X123550943Y-110499782D01*
X124100683Y-109951000D01*
X129173868Y-109951000D01*
X129421000Y-110198132D01*
X129421000Y-114364200D01*
X129001270Y-114783199D01*
X128721319Y-115457395D01*
X128720682Y-116187403D01*
X128999455Y-116862086D01*
X129515199Y-117378730D01*
X130189395Y-117658681D01*
X130919403Y-117659318D01*
X131594086Y-117380545D01*
X132110730Y-116864801D01*
X132390681Y-116190605D01*
X132391318Y-115460597D01*
X132112545Y-114785914D01*
X131691000Y-114363633D01*
X131691000Y-109728000D01*
X131604603Y-109293654D01*
X131358566Y-108925434D01*
X130446566Y-108013434D01*
X130078346Y-107767397D01*
X129644000Y-107681000D01*
X124099746Y-107681000D01*
X123553880Y-107134181D01*
X122834913Y-106835639D01*
X123550943Y-106539782D01*
X124109819Y-105981880D01*
X124412654Y-105252573D01*
X124413343Y-104462891D01*
X124111782Y-103733057D01*
X123553880Y-103174181D01*
X122824573Y-102871346D01*
X122034891Y-102870657D01*
X121305057Y-103172218D01*
X120746181Y-103730120D01*
X120443346Y-104459427D01*
X120442657Y-105249109D01*
X117550000Y-105249109D01*
X117550000Y-100548050D01*
X128721000Y-100548050D01*
X128721000Y-100619950D01*
X128860681Y-101322174D01*
X129258459Y-101917491D01*
X129421000Y-102026097D01*
X129421000Y-105156000D01*
X129507397Y-105590346D01*
X129605826Y-105737655D01*
X129753434Y-105958566D01*
X130769434Y-106974566D01*
X131137654Y-107220603D01*
X131572000Y-107307000D01*
X134265233Y-107307000D01*
X134467275Y-107442000D01*
X134085189Y-107697302D01*
X133774120Y-108162849D01*
X133664887Y-108712000D01*
X133774120Y-109261151D01*
X134085189Y-109726698D01*
X134467275Y-109982000D01*
X134085189Y-110237302D01*
X133774120Y-110702849D01*
X133664887Y-111252000D01*
X133774120Y-111801151D01*
X134085189Y-112266698D01*
X134467275Y-112522000D01*
X134085189Y-112777302D01*
X133774120Y-113242849D01*
X133664887Y-113792000D01*
X133774120Y-114341151D01*
X134085189Y-114806698D01*
X134467275Y-115062000D01*
X134085189Y-115317302D01*
X133774120Y-115782849D01*
X133664887Y-116332000D01*
X133774120Y-116881151D01*
X134085189Y-117346698D01*
X134467275Y-117602000D01*
X134085189Y-117857302D01*
X133774120Y-118322849D01*
X133664887Y-118872000D01*
X133774120Y-119421151D01*
X134085189Y-119886698D01*
X134467275Y-120142000D01*
X134085189Y-120397302D01*
X133774120Y-120862849D01*
X133664887Y-121412000D01*
X133774120Y-121961151D01*
X134085189Y-122426698D01*
X134550736Y-122737767D01*
X135099887Y-122847000D01*
X135156113Y-122847000D01*
X135705264Y-122737767D01*
X136170811Y-122426698D01*
X136481880Y-121961151D01*
X136591113Y-121412000D01*
X136481880Y-120862849D01*
X136170811Y-120397302D01*
X135788725Y-120142000D01*
X136170811Y-119886698D01*
X136481880Y-119421151D01*
X136591113Y-118872000D01*
X136481880Y-118322849D01*
X136170811Y-117857302D01*
X135788725Y-117602000D01*
X136170811Y-117346698D01*
X136481880Y-116881151D01*
X136591113Y-116332000D01*
X136481880Y-115782849D01*
X136170811Y-115317302D01*
X135788725Y-115062000D01*
X136170811Y-114806698D01*
X136481880Y-114341151D01*
X136591113Y-113792000D01*
X136481880Y-113242849D01*
X136170811Y-112777302D01*
X135788725Y-112522000D01*
X136170811Y-112266698D01*
X136481880Y-111801151D01*
X136591113Y-111252000D01*
X136481880Y-110702849D01*
X136170811Y-110237302D01*
X135788725Y-109982000D01*
X136170811Y-109726698D01*
X136481880Y-109261151D01*
X136591113Y-108712000D01*
X136481880Y-108162849D01*
X136170811Y-107697302D01*
X135788725Y-107442000D01*
X136170811Y-107186698D01*
X136481880Y-106721151D01*
X136591113Y-106172000D01*
X136481880Y-105622849D01*
X136170811Y-105157302D01*
X135788725Y-104902000D01*
X136170811Y-104646698D01*
X136481880Y-104181151D01*
X136591113Y-103632000D01*
X136481880Y-103082849D01*
X136170811Y-102617302D01*
X135788725Y-102362000D01*
X136170811Y-102106698D01*
X136481880Y-101641151D01*
X136591113Y-101092000D01*
X136481880Y-100542849D01*
X136170811Y-100077302D01*
X135788725Y-99822000D01*
X136170811Y-99566698D01*
X136481880Y-99101151D01*
X136591113Y-98552000D01*
X136481880Y-98002849D01*
X136170811Y-97537302D01*
X135788725Y-97282000D01*
X136170811Y-97026698D01*
X136481880Y-96561151D01*
X136591113Y-96012000D01*
X136481880Y-95462849D01*
X136170811Y-94997302D01*
X135705264Y-94686233D01*
X135156113Y-94577000D01*
X135099887Y-94577000D01*
X134550736Y-94686233D01*
X134085189Y-94997302D01*
X133774120Y-95462849D01*
X133664887Y-96012000D01*
X133774120Y-96561151D01*
X134085189Y-97026698D01*
X134467275Y-97282000D01*
X134085189Y-97537302D01*
X133774120Y-98002849D01*
X133664887Y-98552000D01*
X133774120Y-99101151D01*
X134085189Y-99566698D01*
X134467275Y-99822000D01*
X134085189Y-100077302D01*
X133774120Y-100542849D01*
X133664887Y-101092000D01*
X133774120Y-101641151D01*
X134085189Y-102106698D01*
X134467275Y-102362000D01*
X134085189Y-102617302D01*
X133774120Y-103082849D01*
X133664887Y-103632000D01*
X133774120Y-104181151D01*
X134085189Y-104646698D01*
X134467275Y-104902000D01*
X134265233Y-105037000D01*
X132042132Y-105037000D01*
X131691000Y-104685868D01*
X131691000Y-102026097D01*
X131853541Y-101917491D01*
X132251319Y-101322174D01*
X132391000Y-100619950D01*
X132391000Y-100548050D01*
X132251319Y-99845826D01*
X131853541Y-99250509D01*
X131258224Y-98852731D01*
X130556000Y-98713050D01*
X129853776Y-98852731D01*
X129258459Y-99250509D01*
X128860681Y-99845826D01*
X128721000Y-100548050D01*
X117550000Y-100548050D01*
X117550000Y-88392000D01*
X133664887Y-88392000D01*
X133774120Y-88941151D01*
X134085189Y-89406698D01*
X134467275Y-89662000D01*
X134085189Y-89917302D01*
X133774120Y-90382849D01*
X133664887Y-90932000D01*
X133774120Y-91481151D01*
X134085189Y-91946698D01*
X134550736Y-92257767D01*
X135099887Y-92367000D01*
X135156113Y-92367000D01*
X135705264Y-92257767D01*
X136170811Y-91946698D01*
X136481880Y-91481151D01*
X136591113Y-90932000D01*
X148904887Y-90932000D01*
X149014120Y-91481151D01*
X149325189Y-91946698D01*
X149707275Y-92202000D01*
X149325189Y-92457302D01*
X149014120Y-92922849D01*
X148904887Y-93472000D01*
X149014120Y-94021151D01*
X149325189Y-94486698D01*
X149707275Y-94742000D01*
X149325189Y-94997302D01*
X149014120Y-95462849D01*
X148904887Y-96012000D01*
X149014120Y-96561151D01*
X149325189Y-97026698D01*
X149707275Y-97282000D01*
X149325189Y-97537302D01*
X149014120Y-98002849D01*
X148904887Y-98552000D01*
X149014120Y-99101151D01*
X149325189Y-99566698D01*
X149707275Y-99822000D01*
X149325189Y-100077302D01*
X149014120Y-100542849D01*
X148904887Y-101092000D01*
X149014120Y-101641151D01*
X149325189Y-102106698D01*
X149707275Y-102362000D01*
X149325189Y-102617302D01*
X149014120Y-103082849D01*
X148904887Y-103632000D01*
X149014120Y-104181151D01*
X149325189Y-104646698D01*
X149707275Y-104902000D01*
X149325189Y-105157302D01*
X149014120Y-105622849D01*
X148904887Y-106172000D01*
X149014120Y-106721151D01*
X149325189Y-107186698D01*
X149707275Y-107442000D01*
X149325189Y-107697302D01*
X149014120Y-108162849D01*
X148904887Y-108712000D01*
X149014120Y-109261151D01*
X149325189Y-109726698D01*
X149707275Y-109982000D01*
X149325189Y-110237302D01*
X149014120Y-110702849D01*
X148904887Y-111252000D01*
X149014120Y-111801151D01*
X149325189Y-112266698D01*
X149707275Y-112522000D01*
X149325189Y-112777302D01*
X149014120Y-113242849D01*
X148904887Y-113792000D01*
X149014120Y-114341151D01*
X149325189Y-114806698D01*
X149707275Y-115062000D01*
X149325189Y-115317302D01*
X149014120Y-115782849D01*
X148904887Y-116332000D01*
X149014120Y-116881151D01*
X149325189Y-117346698D01*
X149707275Y-117602000D01*
X149325189Y-117857302D01*
X149014120Y-118322849D01*
X148904887Y-118872000D01*
X149014120Y-119421151D01*
X149325189Y-119886698D01*
X149707275Y-120142000D01*
X149325189Y-120397302D01*
X149014120Y-120862849D01*
X148904887Y-121412000D01*
X149014120Y-121961151D01*
X149325189Y-122426698D01*
X149790736Y-122737767D01*
X150339887Y-122847000D01*
X150396113Y-122847000D01*
X150945264Y-122737767D01*
X151410811Y-122426698D01*
X151721880Y-121961151D01*
X151831113Y-121412000D01*
X151721880Y-120862849D01*
X151410811Y-120397302D01*
X151028725Y-120142000D01*
X151410811Y-119886698D01*
X151721880Y-119421151D01*
X151831113Y-118872000D01*
X151721880Y-118322849D01*
X151410811Y-117857302D01*
X151028725Y-117602000D01*
X151410811Y-117346698D01*
X151721880Y-116881151D01*
X151831113Y-116332000D01*
X151721880Y-115782849D01*
X151410811Y-115317302D01*
X151028725Y-115062000D01*
X151410811Y-114806698D01*
X151721880Y-114341151D01*
X151831113Y-113792000D01*
X151721880Y-113242849D01*
X151410811Y-112777302D01*
X151028725Y-112522000D01*
X151410811Y-112266698D01*
X151721880Y-111801151D01*
X151831113Y-111252000D01*
X151721880Y-110702849D01*
X151410811Y-110237302D01*
X151028725Y-109982000D01*
X151410811Y-109726698D01*
X151560949Y-109502000D01*
X158638560Y-109502000D01*
X158638560Y-113002000D01*
X158682838Y-113237317D01*
X158821910Y-113453441D01*
X159034110Y-113598431D01*
X159286000Y-113649440D01*
X162786000Y-113649440D01*
X163021317Y-113605162D01*
X163237441Y-113466090D01*
X163382431Y-113253890D01*
X163433440Y-113002000D01*
X163433440Y-109502000D01*
X163389162Y-109266683D01*
X163250090Y-109050559D01*
X163037890Y-108905569D01*
X162786000Y-108854560D01*
X159286000Y-108854560D01*
X159050683Y-108898838D01*
X158834559Y-109037910D01*
X158689569Y-109250110D01*
X158638560Y-109502000D01*
X151560949Y-109502000D01*
X151721880Y-109261151D01*
X151831113Y-108712000D01*
X151721880Y-108162849D01*
X151410811Y-107697302D01*
X151028725Y-107442000D01*
X151410811Y-107186698D01*
X151721880Y-106721151D01*
X151831113Y-106172000D01*
X151721880Y-105622849D01*
X151472155Y-105249109D01*
X172798657Y-105249109D01*
X173100218Y-105978943D01*
X173658120Y-106537819D01*
X174377087Y-106836361D01*
X173661057Y-107132218D01*
X173102181Y-107690120D01*
X172799346Y-108419427D01*
X172798657Y-109209109D01*
X173100218Y-109938943D01*
X173658120Y-110497819D01*
X174387427Y-110800654D01*
X175177109Y-110801343D01*
X175906943Y-110499782D01*
X176465819Y-109941880D01*
X176768654Y-109212573D01*
X176769343Y-108422891D01*
X176467782Y-107693057D01*
X175909880Y-107134181D01*
X175190913Y-106835639D01*
X175906943Y-106539782D01*
X176465819Y-105981880D01*
X176768654Y-105252573D01*
X176769343Y-104462891D01*
X176467782Y-103733057D01*
X175909880Y-103174181D01*
X175180573Y-102871346D01*
X174390891Y-102870657D01*
X173661057Y-103172218D01*
X173102181Y-103730120D01*
X172799346Y-104459427D01*
X172798657Y-105249109D01*
X151472155Y-105249109D01*
X151410811Y-105157302D01*
X151028725Y-104902000D01*
X151410811Y-104646698D01*
X151721880Y-104181151D01*
X151831113Y-103632000D01*
X151721880Y-103082849D01*
X151410811Y-102617302D01*
X151028725Y-102362000D01*
X151410811Y-102106698D01*
X151721880Y-101641151D01*
X151831113Y-101092000D01*
X151721880Y-100542849D01*
X151410811Y-100077302D01*
X151028725Y-99822000D01*
X151410811Y-99566698D01*
X151721880Y-99101151D01*
X151831113Y-98552000D01*
X151721880Y-98002849D01*
X151410811Y-97537302D01*
X151028725Y-97282000D01*
X151410811Y-97026698D01*
X151721880Y-96561151D01*
X151831113Y-96012000D01*
X151721880Y-95462849D01*
X151410811Y-94997302D01*
X151028725Y-94742000D01*
X151410811Y-94486698D01*
X151721880Y-94021151D01*
X151831113Y-93472000D01*
X151721880Y-92922849D01*
X151420632Y-92472000D01*
X163960560Y-92472000D01*
X163960560Y-94472000D01*
X164004838Y-94707317D01*
X164143910Y-94923441D01*
X164356110Y-95068431D01*
X164608000Y-95119440D01*
X166608000Y-95119440D01*
X166843317Y-95075162D01*
X167059441Y-94936090D01*
X167204431Y-94723890D01*
X167255440Y-94472000D01*
X167255440Y-92472000D01*
X167211162Y-92236683D01*
X167072090Y-92020559D01*
X166859890Y-91875569D01*
X166608000Y-91824560D01*
X164608000Y-91824560D01*
X164372683Y-91868838D01*
X164156559Y-92007910D01*
X164011569Y-92220110D01*
X163960560Y-92472000D01*
X151420632Y-92472000D01*
X151410811Y-92457302D01*
X151028725Y-92202000D01*
X151410811Y-91946698D01*
X151460856Y-91871800D01*
X154803184Y-91871800D01*
X154876853Y-91982054D01*
X155358622Y-92303961D01*
X155926907Y-92417000D01*
X155985093Y-92417000D01*
X156553378Y-92303961D01*
X157035147Y-91982054D01*
X157357054Y-91500285D01*
X157470093Y-90932000D01*
X157357054Y-90363715D01*
X157035147Y-89881946D01*
X156553378Y-89560039D01*
X155985093Y-89447000D01*
X155926907Y-89447000D01*
X155358622Y-89560039D01*
X154876853Y-89881946D01*
X154803184Y-89992200D01*
X151460856Y-89992200D01*
X151410811Y-89917302D01*
X150945264Y-89606233D01*
X150396113Y-89497000D01*
X150339887Y-89497000D01*
X149790736Y-89606233D01*
X149325189Y-89917302D01*
X149014120Y-90382849D01*
X148904887Y-90932000D01*
X136591113Y-90932000D01*
X136481880Y-90382849D01*
X136170811Y-89917302D01*
X135788725Y-89662000D01*
X136170811Y-89406698D01*
X136481880Y-88941151D01*
X136591113Y-88392000D01*
X136481880Y-87842849D01*
X136170811Y-87377302D01*
X136026535Y-87280899D01*
X136163317Y-87255162D01*
X136379441Y-87116090D01*
X136524431Y-86903890D01*
X136575440Y-86652000D01*
X136575440Y-85852000D01*
X148904887Y-85852000D01*
X149014120Y-86401151D01*
X149325189Y-86866698D01*
X149790736Y-87177767D01*
X150339887Y-87287000D01*
X150396113Y-87287000D01*
X150945264Y-87177767D01*
X151410811Y-86866698D01*
X151721880Y-86401151D01*
X151831113Y-85852000D01*
X151721880Y-85302849D01*
X151410811Y-84837302D01*
X150945264Y-84526233D01*
X150396113Y-84417000D01*
X150339887Y-84417000D01*
X149790736Y-84526233D01*
X149325189Y-84837302D01*
X149014120Y-85302849D01*
X148904887Y-85852000D01*
X136575440Y-85852000D01*
X136575440Y-85052000D01*
X136531162Y-84816683D01*
X136392090Y-84600559D01*
X136179890Y-84455569D01*
X135928000Y-84404560D01*
X134328000Y-84404560D01*
X134092683Y-84448838D01*
X133876559Y-84587910D01*
X133731569Y-84800110D01*
X133680560Y-85052000D01*
X133680560Y-86652000D01*
X133724838Y-86887317D01*
X133863910Y-87103441D01*
X134076110Y-87248431D01*
X134231089Y-87279815D01*
X134085189Y-87377302D01*
X133774120Y-87842849D01*
X133664887Y-88392000D01*
X117550000Y-88392000D01*
X117550000Y-82333276D01*
X118220811Y-83005259D01*
X119629825Y-83590333D01*
X121155482Y-83591664D01*
X122565515Y-83009050D01*
X123645259Y-81931189D01*
X124230333Y-80522175D01*
X124231664Y-78996518D01*
X123649050Y-77586485D01*
X122973745Y-76910000D01*
X174206724Y-76910000D01*
X173534741Y-77580811D01*
X173534741Y-77580811D01*
G37*
X173534741Y-77580811D02*
X172949667Y-78989825D01*
X172948336Y-80515482D01*
X173530950Y-81925515D01*
X174608811Y-83005259D01*
X176017825Y-83590333D01*
X177543482Y-83591664D01*
X178953515Y-83009050D01*
X179630000Y-82333745D01*
X179630000Y-119342724D01*
X178959189Y-118670741D01*
X177550175Y-118085667D01*
X176024518Y-118084336D01*
X174614485Y-118666950D01*
X173534741Y-119744811D01*
X172949667Y-121153825D01*
X172948336Y-122679482D01*
X173530950Y-124089515D01*
X174206255Y-124766000D01*
X122973276Y-124766000D01*
X123645259Y-124095189D01*
X124230333Y-122686175D01*
X124231664Y-121160518D01*
X123649050Y-119750485D01*
X122571189Y-118670741D01*
X121162175Y-118085667D01*
X119636518Y-118084336D01*
X118226485Y-118666950D01*
X117550000Y-119342255D01*
X117550000Y-105249109D01*
X120442657Y-105249109D01*
X120744218Y-105978943D01*
X121302120Y-106537819D01*
X122021087Y-106836361D01*
X121305057Y-107132218D01*
X120746181Y-107690120D01*
X120443346Y-108419427D01*
X120442657Y-109209109D01*
X120744218Y-109938943D01*
X121302120Y-110497819D01*
X122031427Y-110800654D01*
X122821109Y-110801343D01*
X123550943Y-110499782D01*
X124100683Y-109951000D01*
X129173868Y-109951000D01*
X129421000Y-110198132D01*
X129421000Y-114364200D01*
X129001270Y-114783199D01*
X128721319Y-115457395D01*
X128720682Y-116187403D01*
X128999455Y-116862086D01*
X129515199Y-117378730D01*
X130189395Y-117658681D01*
X130919403Y-117659318D01*
X131594086Y-117380545D01*
X132110730Y-116864801D01*
X132390681Y-116190605D01*
X132391318Y-115460597D01*
X132112545Y-114785914D01*
X131691000Y-114363633D01*
X131691000Y-109728000D01*
X131604603Y-109293654D01*
X131358566Y-108925434D01*
X130446566Y-108013434D01*
X130078346Y-107767397D01*
X129644000Y-107681000D01*
X124099746Y-107681000D01*
X123553880Y-107134181D01*
X122834913Y-106835639D01*
X123550943Y-106539782D01*
X124109819Y-105981880D01*
X124412654Y-105252573D01*
X124413343Y-104462891D01*
X124111782Y-103733057D01*
X123553880Y-103174181D01*
X122824573Y-102871346D01*
X122034891Y-102870657D01*
X121305057Y-103172218D01*
X120746181Y-103730120D01*
X120443346Y-104459427D01*
X120442657Y-105249109D01*
X117550000Y-105249109D01*
X117550000Y-100548050D01*
X128721000Y-100548050D01*
X128721000Y-100619950D01*
X128860681Y-101322174D01*
X129258459Y-101917491D01*
X129421000Y-102026097D01*
X129421000Y-105156000D01*
X129507397Y-105590346D01*
X129605826Y-105737655D01*
X129753434Y-105958566D01*
X130769434Y-106974566D01*
X131137654Y-107220603D01*
X131572000Y-107307000D01*
X134265233Y-107307000D01*
X134467275Y-107442000D01*
X134085189Y-107697302D01*
X133774120Y-108162849D01*
X133664887Y-108712000D01*
X133774120Y-109261151D01*
X134085189Y-109726698D01*
X134467275Y-109982000D01*
X134085189Y-110237302D01*
X133774120Y-110702849D01*
X133664887Y-111252000D01*
X133774120Y-111801151D01*
X134085189Y-112266698D01*
X134467275Y-112522000D01*
X134085189Y-112777302D01*
X133774120Y-113242849D01*
X133664887Y-113792000D01*
X133774120Y-114341151D01*
X134085189Y-114806698D01*
X134467275Y-115062000D01*
X134085189Y-115317302D01*
X133774120Y-115782849D01*
X133664887Y-116332000D01*
X133774120Y-116881151D01*
X134085189Y-117346698D01*
X134467275Y-117602000D01*
X134085189Y-117857302D01*
X133774120Y-118322849D01*
X133664887Y-118872000D01*
X133774120Y-119421151D01*
X134085189Y-119886698D01*
X134467275Y-120142000D01*
X134085189Y-120397302D01*
X133774120Y-120862849D01*
X133664887Y-121412000D01*
X133774120Y-121961151D01*
X134085189Y-122426698D01*
X134550736Y-122737767D01*
X135099887Y-122847000D01*
X135156113Y-122847000D01*
X135705264Y-122737767D01*
X136170811Y-122426698D01*
X136481880Y-121961151D01*
X136591113Y-121412000D01*
X136481880Y-120862849D01*
X136170811Y-120397302D01*
X135788725Y-120142000D01*
X136170811Y-119886698D01*
X136481880Y-119421151D01*
X136591113Y-118872000D01*
X136481880Y-118322849D01*
X136170811Y-117857302D01*
X135788725Y-117602000D01*
X136170811Y-117346698D01*
X136481880Y-116881151D01*
X136591113Y-116332000D01*
X136481880Y-115782849D01*
X136170811Y-115317302D01*
X135788725Y-115062000D01*
X136170811Y-114806698D01*
X136481880Y-114341151D01*
X136591113Y-113792000D01*
X136481880Y-113242849D01*
X136170811Y-112777302D01*
X135788725Y-112522000D01*
X136170811Y-112266698D01*
X136481880Y-111801151D01*
X136591113Y-111252000D01*
X136481880Y-110702849D01*
X136170811Y-110237302D01*
X135788725Y-109982000D01*
X136170811Y-109726698D01*
X136481880Y-109261151D01*
X136591113Y-108712000D01*
X136481880Y-108162849D01*
X136170811Y-107697302D01*
X135788725Y-107442000D01*
X136170811Y-107186698D01*
X136481880Y-106721151D01*
X136591113Y-106172000D01*
X136481880Y-105622849D01*
X136170811Y-105157302D01*
X135788725Y-104902000D01*
X136170811Y-104646698D01*
X136481880Y-104181151D01*
X136591113Y-103632000D01*
X136481880Y-103082849D01*
X136170811Y-102617302D01*
X135788725Y-102362000D01*
X136170811Y-102106698D01*
X136481880Y-101641151D01*
X136591113Y-101092000D01*
X136481880Y-100542849D01*
X136170811Y-100077302D01*
X135788725Y-99822000D01*
X136170811Y-99566698D01*
X136481880Y-99101151D01*
X136591113Y-98552000D01*
X136481880Y-98002849D01*
X136170811Y-97537302D01*
X135788725Y-97282000D01*
X136170811Y-97026698D01*
X136481880Y-96561151D01*
X136591113Y-96012000D01*
X136481880Y-95462849D01*
X136170811Y-94997302D01*
X135705264Y-94686233D01*
X135156113Y-94577000D01*
X135099887Y-94577000D01*
X134550736Y-94686233D01*
X134085189Y-94997302D01*
X133774120Y-95462849D01*
X133664887Y-96012000D01*
X133774120Y-96561151D01*
X134085189Y-97026698D01*
X134467275Y-97282000D01*
X134085189Y-97537302D01*
X133774120Y-98002849D01*
X133664887Y-98552000D01*
X133774120Y-99101151D01*
X134085189Y-99566698D01*
X134467275Y-99822000D01*
X134085189Y-100077302D01*
X133774120Y-100542849D01*
X133664887Y-101092000D01*
X133774120Y-101641151D01*
X134085189Y-102106698D01*
X134467275Y-102362000D01*
X134085189Y-102617302D01*
X133774120Y-103082849D01*
X133664887Y-103632000D01*
X133774120Y-104181151D01*
X134085189Y-104646698D01*
X134467275Y-104902000D01*
X134265233Y-105037000D01*
X132042132Y-105037000D01*
X131691000Y-104685868D01*
X131691000Y-102026097D01*
X131853541Y-101917491D01*
X132251319Y-101322174D01*
X132391000Y-100619950D01*
X132391000Y-100548050D01*
X132251319Y-99845826D01*
X131853541Y-99250509D01*
X131258224Y-98852731D01*
X130556000Y-98713050D01*
X129853776Y-98852731D01*
X129258459Y-99250509D01*
X128860681Y-99845826D01*
X128721000Y-100548050D01*
X117550000Y-100548050D01*
X117550000Y-88392000D01*
X133664887Y-88392000D01*
X133774120Y-88941151D01*
X134085189Y-89406698D01*
X134467275Y-89662000D01*
X134085189Y-89917302D01*
X133774120Y-90382849D01*
X133664887Y-90932000D01*
X133774120Y-91481151D01*
X134085189Y-91946698D01*
X134550736Y-92257767D01*
X135099887Y-92367000D01*
X135156113Y-92367000D01*
X135705264Y-92257767D01*
X136170811Y-91946698D01*
X136481880Y-91481151D01*
X136591113Y-90932000D01*
X148904887Y-90932000D01*
X149014120Y-91481151D01*
X149325189Y-91946698D01*
X149707275Y-92202000D01*
X149325189Y-92457302D01*
X149014120Y-92922849D01*
X148904887Y-93472000D01*
X149014120Y-94021151D01*
X149325189Y-94486698D01*
X149707275Y-94742000D01*
X149325189Y-94997302D01*
X149014120Y-95462849D01*
X148904887Y-96012000D01*
X149014120Y-96561151D01*
X149325189Y-97026698D01*
X149707275Y-97282000D01*
X149325189Y-97537302D01*
X149014120Y-98002849D01*
X148904887Y-98552000D01*
X149014120Y-99101151D01*
X149325189Y-99566698D01*
X149707275Y-99822000D01*
X149325189Y-100077302D01*
X149014120Y-100542849D01*
X148904887Y-101092000D01*
X149014120Y-101641151D01*
X149325189Y-102106698D01*
X149707275Y-102362000D01*
X149325189Y-102617302D01*
X149014120Y-103082849D01*
X148904887Y-103632000D01*
X149014120Y-104181151D01*
X149325189Y-104646698D01*
X149707275Y-104902000D01*
X149325189Y-105157302D01*
X149014120Y-105622849D01*
X148904887Y-106172000D01*
X149014120Y-106721151D01*
X149325189Y-107186698D01*
X149707275Y-107442000D01*
X149325189Y-107697302D01*
X149014120Y-108162849D01*
X148904887Y-108712000D01*
X149014120Y-109261151D01*
X149325189Y-109726698D01*
X149707275Y-109982000D01*
X149325189Y-110237302D01*
X149014120Y-110702849D01*
X148904887Y-111252000D01*
X149014120Y-111801151D01*
X149325189Y-112266698D01*
X149707275Y-112522000D01*
X149325189Y-112777302D01*
X149014120Y-113242849D01*
X148904887Y-113792000D01*
X149014120Y-114341151D01*
X149325189Y-114806698D01*
X149707275Y-115062000D01*
X149325189Y-115317302D01*
X149014120Y-115782849D01*
X148904887Y-116332000D01*
X149014120Y-116881151D01*
X149325189Y-117346698D01*
X149707275Y-117602000D01*
X149325189Y-117857302D01*
X149014120Y-118322849D01*
X148904887Y-118872000D01*
X149014120Y-119421151D01*
X149325189Y-119886698D01*
X149707275Y-120142000D01*
X149325189Y-120397302D01*
X149014120Y-120862849D01*
X148904887Y-121412000D01*
X149014120Y-121961151D01*
X149325189Y-122426698D01*
X149790736Y-122737767D01*
X150339887Y-122847000D01*
X150396113Y-122847000D01*
X150945264Y-122737767D01*
X151410811Y-122426698D01*
X151721880Y-121961151D01*
X151831113Y-121412000D01*
X151721880Y-120862849D01*
X151410811Y-120397302D01*
X151028725Y-120142000D01*
X151410811Y-119886698D01*
X151721880Y-119421151D01*
X151831113Y-118872000D01*
X151721880Y-118322849D01*
X151410811Y-117857302D01*
X151028725Y-117602000D01*
X151410811Y-117346698D01*
X151721880Y-116881151D01*
X151831113Y-116332000D01*
X151721880Y-115782849D01*
X151410811Y-115317302D01*
X151028725Y-115062000D01*
X151410811Y-114806698D01*
X151721880Y-114341151D01*
X151831113Y-113792000D01*
X151721880Y-113242849D01*
X151410811Y-112777302D01*
X151028725Y-112522000D01*
X151410811Y-112266698D01*
X151721880Y-111801151D01*
X151831113Y-111252000D01*
X151721880Y-110702849D01*
X151410811Y-110237302D01*
X151028725Y-109982000D01*
X151410811Y-109726698D01*
X151560949Y-109502000D01*
X158638560Y-109502000D01*
X158638560Y-113002000D01*
X158682838Y-113237317D01*
X158821910Y-113453441D01*
X159034110Y-113598431D01*
X159286000Y-113649440D01*
X162786000Y-113649440D01*
X163021317Y-113605162D01*
X163237441Y-113466090D01*
X163382431Y-113253890D01*
X163433440Y-113002000D01*
X163433440Y-109502000D01*
X163389162Y-109266683D01*
X163250090Y-109050559D01*
X163037890Y-108905569D01*
X162786000Y-108854560D01*
X159286000Y-108854560D01*
X159050683Y-108898838D01*
X158834559Y-109037910D01*
X158689569Y-109250110D01*
X158638560Y-109502000D01*
X151560949Y-109502000D01*
X151721880Y-109261151D01*
X151831113Y-108712000D01*
X151721880Y-108162849D01*
X151410811Y-107697302D01*
X151028725Y-107442000D01*
X151410811Y-107186698D01*
X151721880Y-106721151D01*
X151831113Y-106172000D01*
X151721880Y-105622849D01*
X151472155Y-105249109D01*
X172798657Y-105249109D01*
X173100218Y-105978943D01*
X173658120Y-106537819D01*
X174377087Y-106836361D01*
X173661057Y-107132218D01*
X173102181Y-107690120D01*
X172799346Y-108419427D01*
X172798657Y-109209109D01*
X173100218Y-109938943D01*
X173658120Y-110497819D01*
X174387427Y-110800654D01*
X175177109Y-110801343D01*
X175906943Y-110499782D01*
X176465819Y-109941880D01*
X176768654Y-109212573D01*
X176769343Y-108422891D01*
X176467782Y-107693057D01*
X175909880Y-107134181D01*
X175190913Y-106835639D01*
X175906943Y-106539782D01*
X176465819Y-105981880D01*
X176768654Y-105252573D01*
X176769343Y-104462891D01*
X176467782Y-103733057D01*
X175909880Y-103174181D01*
X175180573Y-102871346D01*
X174390891Y-102870657D01*
X173661057Y-103172218D01*
X173102181Y-103730120D01*
X172799346Y-104459427D01*
X172798657Y-105249109D01*
X151472155Y-105249109D01*
X151410811Y-105157302D01*
X151028725Y-104902000D01*
X151410811Y-104646698D01*
X151721880Y-104181151D01*
X151831113Y-103632000D01*
X151721880Y-103082849D01*
X151410811Y-102617302D01*
X151028725Y-102362000D01*
X151410811Y-102106698D01*
X151721880Y-101641151D01*
X151831113Y-101092000D01*
X151721880Y-100542849D01*
X151410811Y-100077302D01*
X151028725Y-99822000D01*
X151410811Y-99566698D01*
X151721880Y-99101151D01*
X151831113Y-98552000D01*
X151721880Y-98002849D01*
X151410811Y-97537302D01*
X151028725Y-97282000D01*
X151410811Y-97026698D01*
X151721880Y-96561151D01*
X151831113Y-96012000D01*
X151721880Y-95462849D01*
X151410811Y-94997302D01*
X151028725Y-94742000D01*
X151410811Y-94486698D01*
X151721880Y-94021151D01*
X151831113Y-93472000D01*
X151721880Y-92922849D01*
X151420632Y-92472000D01*
X163960560Y-92472000D01*
X163960560Y-94472000D01*
X164004838Y-94707317D01*
X164143910Y-94923441D01*
X164356110Y-95068431D01*
X164608000Y-95119440D01*
X166608000Y-95119440D01*
X166843317Y-95075162D01*
X167059441Y-94936090D01*
X167204431Y-94723890D01*
X167255440Y-94472000D01*
X167255440Y-92472000D01*
X167211162Y-92236683D01*
X167072090Y-92020559D01*
X166859890Y-91875569D01*
X166608000Y-91824560D01*
X164608000Y-91824560D01*
X164372683Y-91868838D01*
X164156559Y-92007910D01*
X164011569Y-92220110D01*
X163960560Y-92472000D01*
X151420632Y-92472000D01*
X151410811Y-92457302D01*
X151028725Y-92202000D01*
X151410811Y-91946698D01*
X151460856Y-91871800D01*
X154803184Y-91871800D01*
X154876853Y-91982054D01*
X155358622Y-92303961D01*
X155926907Y-92417000D01*
X155985093Y-92417000D01*
X156553378Y-92303961D01*
X157035147Y-91982054D01*
X157357054Y-91500285D01*
X157470093Y-90932000D01*
X157357054Y-90363715D01*
X157035147Y-89881946D01*
X156553378Y-89560039D01*
X155985093Y-89447000D01*
X155926907Y-89447000D01*
X155358622Y-89560039D01*
X154876853Y-89881946D01*
X154803184Y-89992200D01*
X151460856Y-89992200D01*
X151410811Y-89917302D01*
X150945264Y-89606233D01*
X150396113Y-89497000D01*
X150339887Y-89497000D01*
X149790736Y-89606233D01*
X149325189Y-89917302D01*
X149014120Y-90382849D01*
X148904887Y-90932000D01*
X136591113Y-90932000D01*
X136481880Y-90382849D01*
X136170811Y-89917302D01*
X135788725Y-89662000D01*
X136170811Y-89406698D01*
X136481880Y-88941151D01*
X136591113Y-88392000D01*
X136481880Y-87842849D01*
X136170811Y-87377302D01*
X136026535Y-87280899D01*
X136163317Y-87255162D01*
X136379441Y-87116090D01*
X136524431Y-86903890D01*
X136575440Y-86652000D01*
X136575440Y-85852000D01*
X148904887Y-85852000D01*
X149014120Y-86401151D01*
X149325189Y-86866698D01*
X149790736Y-87177767D01*
X150339887Y-87287000D01*
X150396113Y-87287000D01*
X150945264Y-87177767D01*
X151410811Y-86866698D01*
X151721880Y-86401151D01*
X151831113Y-85852000D01*
X151721880Y-85302849D01*
X151410811Y-84837302D01*
X150945264Y-84526233D01*
X150396113Y-84417000D01*
X150339887Y-84417000D01*
X149790736Y-84526233D01*
X149325189Y-84837302D01*
X149014120Y-85302849D01*
X148904887Y-85852000D01*
X136575440Y-85852000D01*
X136575440Y-85052000D01*
X136531162Y-84816683D01*
X136392090Y-84600559D01*
X136179890Y-84455569D01*
X135928000Y-84404560D01*
X134328000Y-84404560D01*
X134092683Y-84448838D01*
X133876559Y-84587910D01*
X133731569Y-84800110D01*
X133680560Y-85052000D01*
X133680560Y-86652000D01*
X133724838Y-86887317D01*
X133863910Y-87103441D01*
X134076110Y-87248431D01*
X134231089Y-87279815D01*
X134085189Y-87377302D01*
X133774120Y-87842849D01*
X133664887Y-88392000D01*
X117550000Y-88392000D01*
X117550000Y-82333276D01*
X118220811Y-83005259D01*
X119629825Y-83590333D01*
X121155482Y-83591664D01*
X122565515Y-83009050D01*
X123645259Y-81931189D01*
X124230333Y-80522175D01*
X124231664Y-78996518D01*
X123649050Y-77586485D01*
X122973745Y-76910000D01*
X174206724Y-76910000D01*
X173534741Y-77580811D01*
M02*
